#!OML:ASF F:\VICON\USERDATA\INSTALL\rory3\rory3.ASF
:FULLY-SPECIFIED
:DEGREES
2333
root 0.479312 16.1593 -1.18637 17.0065 2.19903 -1.28671
lowerback 27.6274 0.0473233 -3.57398
upperback 5.04934 -0.954278 -0.0872832
thorax -9.58608 -0.336589 2.29614
lowerneck -4.25301 -14.9325 -15.9639
upperneck -12.9007 -18.5042 27.5823
head 1.43017 -9.54546 10.0357
rclavicle 2.78299e-015 4.77083e-015
rhumerus -1.13548 8.36875 -77.5387
rradius 96.8839
rwrist 9.49796
rhand 21.5978 8.44022
rfingers 7.12502
rthumb 46.0206 -14.6457
lclavicle 2.78299e-015 4.77083e-015
lhumerus -14.0834 4.75509 65.8711
lradius 106.103
lwrist 10.829
lhand 6.71747 31.1554
lfingers 7.12502
lthumb 32.0067 58.36
rfemur -28.7468 7.92151 14.1061
rtibia 24.7379
rfoot -9.84026 -14.4434
rtoes -4.53744
lfemur -29.8988 -7.33314 -13.953
ltibia 23.9257
lfoot -7.84806 10.7238
ltoes -11.6249
2334
root 0.489178 16.1614 -1.19049 17.0422 2.15919 -1.30203
lowerback 27.5791 0.0307111 -3.56646
upperback 5.06978 -0.971287 -0.0894393
thorax -9.53752 -0.346191 2.29429
lowerneck -4.31107 -14.9339 -15.8737
upperneck -12.9074 -18.5009 27.504
head 1.41679 -9.54205 9.99412
rclavicle 7.95139e-016 -1.19271e-015
rhumerus -1.05709 8.47302 -77.5279
rradius 96.8114
rwrist 9.52401
rhand 21.4684 8.38808
rfingers 7.12502
rthumb 45.9004 -14.7478
lclavicle 7.95139e-016 -1.19271e-015
lhumerus -14.0809 4.82238 65.8816
lradius 106.119
lwrist 10.7986
lhand 6.73256 31.1182
lfingers 7.12502
lthumb 32.0211 58.3199
rfemur -28.7737 8.01141 14.0497
rtibia 24.6987
rfoot -9.83167 -14.5084
rtoes -4.59569
lfemur -29.9171 -7.34008 -13.9623
ltibia 23.8699
lfoot -7.8477 10.7884
ltoes -11.445
2335
root 0.499816 16.1632 -1.19484 17.1205 2.13975 -1.20651
lowerback 27.4845 0.0112165 -3.60461
upperback 5.08149 -1.00586 -0.117831
thorax -9.47399 -0.363125 2.29465
lowerneck -4.36609 -14.9458 -15.8409
upperneck -12.9037 -18.513 27.4573
head 1.4193 -9.5445 9.96809
rclavicle -1.03368e-014 3.57812e-015
rhumerus -1.03439 8.59907 -77.5106
rradius 96.708
rwrist 9.32731
rhand 21.0928 8.36267
rfingers 7.12502
rthumb 45.5517 -14.9162
lclavicle -1.03368e-014 3.57812e-015
lhumerus -14.09 4.85141 65.9404
lradius 106.113
lwrist 10.8008
lhand 6.61338 31.0483
lfingers 7.12502
lthumb 31.9076 58.2728
rfemur -28.8948 7.92907 13.9053
rtibia 24.7324
rfoot -9.85696 -14.4682
rtoes -4.73552
lfemur -29.9692 -7.37833 -14.0951
ltibia 23.7763
lfoot -7.74428 10.8516
ltoes -11.5414
2336
root 0.507672 16.1641 -1.1998 17.1772 2.08549 -1.10184
lowerback 27.411 0.0200025 -3.68792
upperback 5.09543 -1.01904 -0.156906
thorax -9.41917 -0.36885 2.30199
lowerneck -4.40852 -14.9635 -15.8488
upperneck -12.8891 -18.5355 27.4588
head 1.43593 -9.55225 9.96178
rclavicle 7.95139e-016 -1.15295e-014
rhumerus -1.0227 8.66138 -77.5329
rradius 96.5763
rwrist 8.98649
rhand 20.5921 8.52771
rfingers 7.12502
rthumb 45.0862 -14.9378
lclavicle 7.95139e-016 -1.15295e-014
lhumerus -14.1007 4.83522 65.969
lradius 106.12
lwrist 10.8338
lhand 6.49548 31.1581
lfingers 7.12502
lthumb 31.7953 58.4049
rfemur -29.0152 7.91169 13.7414
rtibia 24.8062
rfoot -9.9339 -14.4147
rtoes -4.54184
lfemur -29.9983 -7.32949 -14.2635
ltibia 23.6879
lfoot -7.61085 10.8464
ltoes -11.9243
2337
root 0.5117 16.1632 -1.20553 17.1945 2.02196 -0.981403
lowerback 27.4178 0.0560335 -3.85872
upperback 5.09862 -1.02427 -0.18421
thorax -9.41552 -0.366893 2.37167
lowerneck -4.41857 -14.9715 -15.9035
upperneck -12.8413 -18.5524 27.4993
head 1.46583 -9.55704 9.97672
rclavicle -2.70347e-014 -1.47101e-014
rhumerus -1.03772 8.70297 -77.5526
rradius 96.4761
rwrist 8.82055
rhand 20.291 8.69835
rfingers 7.12502
rthumb 44.8061 -14.8772
lclavicle -2.70347e-014 -1.47101e-014
lhumerus -14.1786 4.76751 65.9815
lradius 106.149
lwrist 10.7214
lhand 6.32428 31.3813
lfingers 7.12502
lthumb 31.6323 58.6603
rfemur -29.0885 7.96171 13.5581
rtibia 24.8728
rfoot -9.98042 -14.4129
rtoes -4.19239
lfemur -29.9911 -7.2845 -14.4315
ltibia 23.6206
lfoot -7.57104 10.8199
ltoes -11.7198
2338
root 0.514759 16.1618 -1.2122 17.2093 1.96332 -0.966309
lowerback 27.4391 0.0922371 -3.94294
upperback 5.09314 -1.0025 -0.179184
thorax -9.43204 -0.353901 2.41881
lowerneck -4.43097 -14.9709 -15.913
upperneck -12.7797 -18.5599 27.4658
head 1.48292 -9.55599 9.96278
rclavicle -9.93923e-015 3.18055e-015
rhumerus -1.04729 8.67849 -77.5594
rradius 96.5187
rwrist 8.94873
rhand 20.5572 8.58786
rfingers 7.12502
rthumb 45.0538 -14.8905
lclavicle -9.93923e-015 3.18055e-015
lhumerus -14.2202 4.73016 65.9836
lradius 106.144
lwrist 10.5882
lhand 6.28136 31.5424
lfingers 7.12502
lthumb 31.5914 58.8295
rfemur -29.1636 8.04234 13.4939
rtibia 24.903
rfoot -9.91749 -14.4841
rtoes -4.24477
lfemur -30.0188 -7.19848 -14.4827
ltibia 23.6071
lfoot -7.54419 10.7755
ltoes -11.6678
2339
root 0.521551 16.1618 -1.21831 17.2102 1.95625 -1.01458
lowerback 27.4794 0.11368 -3.85457
upperback 5.09113 -0.95104 -0.168116
thorax -9.45984 -0.33168 2.36329
lowerneck -4.48173 -15.0051 -15.8666
upperneck -12.7102 -18.6135 27.3707
head 1.50333 -9.57519 9.9101
rclavicle -1.11319e-014 -2.22639e-014
rhumerus -1.10238 8.59058 -77.5305
rradius 96.5808
rwrist 9.14898
rhand 20.8075 8.51735
rfingers 7.12502
rthumb 45.2865 -14.8684
lclavicle -1.11319e-014 -2.22639e-014
lhumerus -14.138 4.66991 66.0499
lradius 106.133
lwrist 10.7013
lhand 6.4326 31.6264
lfingers 7.12502
lthumb 31.7354 58.885
rfemur -29.2068 8.04192 13.5119
rtibia 24.9068
rfoot -9.8855 -14.4876
rtoes -4.07315
lfemur -30.0577 -7.16871 -14.4629
ltibia 23.6302
lfoot -7.57123 10.7694
ltoes -11.6653
2340
root 0.529834 16.1605 -1.22589 17.2164 1.96551 -1.07975
lowerback 27.5447 0.107256 -3.73795
upperback 5.07016 -0.926218 -0.135593
thorax -9.52005 -0.321404 2.32525
lowerneck -4.47795 -15.0084 -15.8701
upperneck -12.7163 -18.6171 27.3044
head 1.49255 -9.57521 9.89
rclavicle -6.36111e-015 6.75868e-015
rhumerus -1.13038 8.66059 -77.4825
rradius 96.4737
rwrist 8.89582
rhand 20.5396 8.5321
rfingers 7.12502
rthumb 45.0374 -14.9527
lclavicle -6.36111e-015 6.75868e-015
lhumerus -14.1501 4.67282 66.1297
lradius 106.126
lwrist 10.7583
lhand 6.64575 31.5632
lfingers 7.12502
lthumb 31.9384 58.7814
rfemur -29.2443 8.00125 13.5592
rtibia 24.8965
rfoot -9.7888 -14.4689
rtoes -4.26871
lfemur -30.1085 -7.12207 -14.434
ltibia 23.6618
lfoot -7.56222 10.7312
ltoes -11.6445
2341
root 0.535205 16.1597 -1.23409 17.2092 1.95622 -1.08234
lowerback 27.6274 0.109098 -3.71779
upperback 5.04379 -0.92088 -0.121813
thorax -9.59238 -0.317298 2.3288
lowerneck -4.46298 -14.9883 -15.888
upperneck -12.7263 -18.5885 27.2617
head 1.47718 -9.5601 9.88594
rclavicle 1.03368e-014 4.37326e-015
rhumerus -1.13831 8.78059 -77.4376
rradius 96.3743
rwrist 8.5991
rhand 20.2205 8.53871
rfingers 7.12502
rthumb 44.7405 -15.0624
lclavicle 1.03368e-014 4.37326e-015
lhumerus -14.1951 4.66334 66.2163
lradius 106.053
lwrist 10.6163
lhand 6.71833 31.3383
lfingers 7.12502
lthumb 32.0075 58.5428
rfemur -29.2715 7.98013 13.5388
rtibia 24.9011
rfoot -9.83436 -14.4393
rtoes -4.18652
lfemur -30.1368 -7.02717 -14.4839
ltibia 23.6744
lfoot -7.47975 10.6464
ltoes -11.8092
2342
root 0.538648 16.1596 -1.23955 17.2144 1.94204 -0.994587
lowerback 27.6506 0.124554 -3.77277
upperback 5.03148 -0.91971 -0.137148
thorax -9.61737 -0.314536 2.34333
lowerneck -4.43914 -14.9891 -15.9209
upperneck -12.7216 -18.5923 27.2161
head 1.47219 -9.56042 9.87774
rclavicle 9.14409e-015 -4.77083e-015
rhumerus -1.15617 8.78974 -77.4316
rradius 96.3197
rwrist 8.68908
rhand 20.2726 8.57792
rfingers 7.12502
rthumb 44.789 -15.0043
lclavicle 9.14409e-015 -4.77083e-015
lhumerus -14.2024 4.59004 66.2714
lradius 106.029
lwrist 10.4921
lhand 6.66795 31.3393
lfingers 7.12502
lthumb 31.9596 58.5534
rfemur -29.3126 7.97666 13.4208
rtibia 24.9372
rfoot -9.83444 -14.4526
rtoes -4.69931
lfemur -30.1598 -6.97729 -14.6082
ltibia 23.6729
lfoot -7.43895 10.5538
ltoes -11.8837
2343
root 0.541407 16.1588 -1.24574 17.2405 1.94908 -0.922317
lowerback 27.6532 0.144624 -3.80585
upperback 5.0351 -0.905339 -0.154862
thorax -9.61524 -0.307134 2.3375
lowerneck -4.45664 -15.0233 -15.8673
upperneck -12.7603 -18.6329 27.1578
head 1.4585 -9.58158 9.84512
rclavicle -2.78299e-015 -3.97569e-016
rhumerus -1.15789 8.76993 -77.4106
rradius 96.3057
rwrist 8.78464
rhand 20.3809 8.68539
rfingers 7.12502
rthumb 44.8897 -14.8575
lclavicle -2.78299e-015 -3.97569e-016
lhumerus -14.1372 4.49506 66.3042
lradius 106.005
lwrist 10.4095
lhand 6.68462 31.5049
lfingers 7.12502
lthumb 31.9754 58.7157
rfemur -29.3935 8.01444 13.3033
rtibia 24.9882
rfoot -9.81815 -14.5227
rtoes -5.11924
lfemur -30.2084 -6.92577 -14.7101
ltibia 23.6621
lfoot -7.38406 10.456
ltoes -11.7511
2344
root 0.546984 16.1572 -1.25234 17.2542 1.91105 -0.885859
lowerback 27.6601 0.170994 -3.79456
upperback 5.04974 -0.871426 -0.180966
thorax -9.60503 -0.292529 2.28985
lowerneck -4.5086 -15.0448 -15.8116
upperneck -12.7768 -18.6554 27.11
head 1.45436 -9.59097 9.81484
rclavicle 1.47101e-014 5.56597e-015
rhumerus -1.16338 8.74772 -77.3883
rradius 96.3087
rwrist 8.76591
rhand 20.4435 8.73642
rfingers 7.12502
rthumb 44.948 -14.7836
lclavicle 1.47101e-014 5.56597e-015
lhumerus -14.0335 4.40405 66.3013
lradius 105.948
lwrist 10.4215
lhand 6.71482 31.4644
lfingers 7.12502
lthumb 32.0042 58.6695
rfemur -29.4836 7.94286 13.2487
rtibia 25.052
rfoot -9.74152 -14.4553
rtoes -5.24223
lfemur -30.2445 -6.88714 -14.7814
ltibia 23.6456
lfoot -7.33401 10.4431
ltoes -11.5624
